<?xml version="1.0" standalone="no"?>
<!DOCTYPE svg PUBLIC "-//W3C//DTD SVG 20010904//EN"
 "http://www.w3.org/TR/2001/REC-SVG-20010904/DTD/svg10.dtd">
<svg version="1.0" xmlns="http://www.w3.org/2000/svg"
 width="512.000000pt" height="512.000000pt" viewBox="0 0 512.000000 512.000000"
 preserveAspectRatio="xMidYMid meet">
<metadata>
Created by potrace 1.11, written by Peter Selinger 2001-2013
</metadata>
<g transform="translate(0.000000,512.000000) scale(0.100000,-0.100000)"
fill="#000000" stroke="none">
<path d="M749 5107 c-39 -30 -39 -41 -39 -589 1 -503 2 -535 20 -571 23 -46
63 -86 101 -99 l27 -9 4 -137 c3 -133 4 -138 33 -181 34 -50 91 -85 148 -90 5
-1 6 -29 3 -63 -3 -35 -8 -97 -11 -138 -3 -41 -8 -93 -10 -115 -2 -22 -7 -80
-10 -130 -3 -49 -8 -103 -10 -120 -2 -16 -7 -66 -10 -110 -3 -44 -8 -100 -10
-125 -3 -25 -7 -81 -10 -125 -4 -44 -8 -100 -10 -125 -3 -25 -7 -76 -10 -115
-3 -38 -7 -90 -10 -115 -2 -25 -7 -83 -10 -130 -3 -47 -8 -101 -10 -120 -2
-19 -7 -69 -10 -110 -5 -75 -11 -147 -20 -250 -3 -30 -8 -89 -10 -130 -3 -41
-8 -86 -10 -100 -2 -14 -6 -71 -10 -127 -3 -56 -7 -110 -9 -120 -2 -10 -7 -64
-10 -119 -4 -56 -8 -110 -10 -120 -2 -11 -7 -66 -11 -124 -7 -103 -7 -106 -40
-135 -67 -59 -73 -85 -75 -291 -1 -186 3 -208 38 -244 14 -13 218 -15 1796
-18 1234 -1 1789 1 1807 8 53 22 60 52 59 252 -2 206 -10 237 -75 293 -33 29
-34 32 -40 125 -4 52 -8 111 -10 130 -2 19 -6 73 -10 120 -4 47 -8 99 -10 115
-2 17 -7 77 -10 135 -4 58 -9 113 -11 123 -1 9 -6 56 -9 105 -3 48 -8 101 -10
117 -2 17 -6 75 -10 130 -4 55 -8 111 -10 125 -2 14 -6 66 -10 115 -3 50 -8
106 -10 125 -3 19 -7 67 -10 105 -5 69 -10 134 -20 265 -3 36 -8 90 -11 120
-2 30 -7 80 -9 110 -2 30 -7 80 -9 110 -3 30 -8 91 -12 135 -3 44 -7 94 -9
110 -1 17 -6 75 -10 129 -4 54 -9 111 -10 125 -2 14 -7 62 -10 106 l-6 80 47
14 c57 17 119 77 134 130 5 20 10 88 10 152 l0 115 39 17 c43 19 81 64 99 116
9 24 12 185 12 558 0 553 -1 570 -45 587 -9 3 -149 6 -310 6 l-293 0 -23 -24
c-13 -14 -25 -30 -25 -35 -1 -6 -2 -105 -3 -221 l-1 -210 -150 0 -150 0 0 218
0 217 -25 28 -26 27 -294 0 c-161 0 -301 -3 -310 -6 -38 -15 -45 -54 -45 -274
l0 -210 -150 0 -150 0 -1 210 c-1 116 -2 215 -3 221 0 5 -12 21 -25 35 l-23
24 -297 0 c-163 0 -301 -4 -307 -8 -5 -4 -18 -18 -27 -32 -15 -21 -17 -54 -17
-237 l0 -213 -150 0 -150 0 0 210 c0 220 -7 259 -45 274 -9 3 -148 6 -308 6
-214 -1 -296 -4 -308 -13z"/>
</g>
</svg>
